<mxfile host="app.diagrams.net" agent="Mozilla/5.0 (Windows NT 10.0; Win64; x64) AppleWebKit/537.36 (KHTML, like Gecko) Chrome/131.0.0.0 Safari/537.36" version="24.8.4">
  <diagram name="Page-1" id="Ny0K-eVpmRl2tGM9wSlF">
    <mxGraphModel dx="934" dy="485" grid="1" gridSize="10" guides="1" tooltips="1" connect="1" arrows="1" fold="1" page="1" pageScale="1" pageWidth="827" pageHeight="1169" math="0" shadow="0">
      <root>
        <mxCell id="0" />
        <mxCell id="1" parent="0" />
        <mxCell id="Omxx1tZ4pmGZDZzG7PeM-2" value="&lt;p data-pm-slice=&quot;1 1 [&amp;quot;ordered_list&amp;quot;,{&amp;quot;spread&amp;quot;:true,&amp;quot;startingNumber&amp;quot;:1,&amp;quot;start&amp;quot;:58,&amp;quot;end&amp;quot;:427},&amp;quot;regular_list_item&amp;quot;,{&amp;quot;start&amp;quot;:58,&amp;quot;end&amp;quot;:139}]&quot;&gt;&lt;strong&gt;Customer&lt;/strong&gt;&lt;/p&gt;" style="shape=umlActor;verticalLabelPosition=bottom;verticalAlign=top;html=1;" vertex="1" parent="1">
          <mxGeometry x="1000" y="170" width="30" height="60" as="geometry" />
        </mxCell>
        <mxCell id="Omxx1tZ4pmGZDZzG7PeM-3" value="&lt;p data-pm-slice=&quot;1 1 [&amp;quot;ordered_list&amp;quot;,{&amp;quot;spread&amp;quot;:true,&amp;quot;startingNumber&amp;quot;:1,&amp;quot;start&amp;quot;:58,&amp;quot;end&amp;quot;:427},&amp;quot;regular_list_item&amp;quot;,{&amp;quot;start&amp;quot;:141,&amp;quot;end&amp;quot;:290}]&quot;&gt;&lt;strong&gt;Admin&lt;/strong&gt;&lt;/p&gt;" style="shape=umlActor;verticalLabelPosition=bottom;verticalAlign=top;html=1;" vertex="1" parent="1">
          <mxGeometry x="90" y="291" width="30" height="60" as="geometry" />
        </mxCell>
        <mxCell id="Omxx1tZ4pmGZDZzG7PeM-4" value="&lt;p data-pm-slice=&quot;1 1 [&amp;quot;ordered_list&amp;quot;,{&amp;quot;spread&amp;quot;:true,&amp;quot;startingNumber&amp;quot;:1,&amp;quot;start&amp;quot;:58,&amp;quot;end&amp;quot;:427},&amp;quot;regular_list_item&amp;quot;,{&amp;quot;start&amp;quot;:292,&amp;quot;end&amp;quot;:427}]&quot;&gt;&lt;strong&gt;System&lt;/strong&gt;&lt;/p&gt;" style="shape=umlActor;verticalLabelPosition=bottom;verticalAlign=top;html=1;" vertex="1" parent="1">
          <mxGeometry x="90" y="503" width="30" height="60" as="geometry" />
        </mxCell>
        <mxCell id="Omxx1tZ4pmGZDZzG7PeM-7" value="" style="html=1;whiteSpace=wrap;" vertex="1" parent="1">
          <mxGeometry x="190" y="10" width="670" height="680" as="geometry" />
        </mxCell>
        <mxCell id="Omxx1tZ4pmGZDZzG7PeM-8" value="&lt;p data-pm-slice=&quot;1 1 [&amp;quot;ordered_list&amp;quot;,{&amp;quot;spread&amp;quot;:true,&amp;quot;startingNumber&amp;quot;:1,&amp;quot;start&amp;quot;:58,&amp;quot;end&amp;quot;:427},&amp;quot;regular_list_item&amp;quot;,{&amp;quot;start&amp;quot;:58,&amp;quot;end&amp;quot;:139},&amp;quot;list&amp;quot;,{&amp;quot;spread&amp;quot;:false,&amp;quot;start&amp;quot;:77,&amp;quot;end&amp;quot;:139},&amp;quot;regular_list_item&amp;quot;,{&amp;quot;start&amp;quot;:77,&amp;quot;end&amp;quot;:93}]&quot;&gt;Places orders.&lt;/p&gt;" style="ellipse;whiteSpace=wrap;html=1;" vertex="1" parent="1">
          <mxGeometry x="400" y="72" width="220" height="40" as="geometry" />
        </mxCell>
        <mxCell id="Omxx1tZ4pmGZDZzG7PeM-9" value="&lt;p data-pm-slice=&quot;1 1 [&amp;quot;ordered_list&amp;quot;,{&amp;quot;spread&amp;quot;:true,&amp;quot;startingNumber&amp;quot;:1,&amp;quot;start&amp;quot;:58,&amp;quot;end&amp;quot;:427},&amp;quot;regular_list_item&amp;quot;,{&amp;quot;start&amp;quot;:58,&amp;quot;end&amp;quot;:139},&amp;quot;list&amp;quot;,{&amp;quot;spread&amp;quot;:false,&amp;quot;start&amp;quot;:77,&amp;quot;end&amp;quot;:139},&amp;quot;regular_list_item&amp;quot;,{&amp;quot;start&amp;quot;:97,&amp;quot;end&amp;quot;:115}]&quot;&gt;Views food menu.&lt;/p&gt;" style="ellipse;whiteSpace=wrap;html=1;" vertex="1" parent="1">
          <mxGeometry x="400" y="136" width="220" height="40" as="geometry" />
        </mxCell>
        <mxCell id="Omxx1tZ4pmGZDZzG7PeM-10" value="&lt;p data-pm-slice=&quot;1 1 [&amp;quot;ordered_list&amp;quot;,{&amp;quot;spread&amp;quot;:true,&amp;quot;startingNumber&amp;quot;:1,&amp;quot;start&amp;quot;:58,&amp;quot;end&amp;quot;:427},&amp;quot;regular_list_item&amp;quot;,{&amp;quot;start&amp;quot;:58,&amp;quot;end&amp;quot;:139},&amp;quot;list&amp;quot;,{&amp;quot;spread&amp;quot;:false,&amp;quot;start&amp;quot;:77,&amp;quot;end&amp;quot;:139},&amp;quot;regular_list_item&amp;quot;,{&amp;quot;start&amp;quot;:119,&amp;quot;end&amp;quot;:139}]&quot;&gt;Receives receipts.&lt;/p&gt;" style="ellipse;whiteSpace=wrap;html=1;" vertex="1" parent="1">
          <mxGeometry x="400" y="204" width="220" height="40" as="geometry" />
        </mxCell>
        <mxCell id="Omxx1tZ4pmGZDZzG7PeM-11" value="&lt;p data-pm-slice=&quot;1 1 [&amp;quot;ordered_list&amp;quot;,{&amp;quot;spread&amp;quot;:true,&amp;quot;startingNumber&amp;quot;:1,&amp;quot;start&amp;quot;:58,&amp;quot;end&amp;quot;:427},&amp;quot;regular_list_item&amp;quot;,{&amp;quot;start&amp;quot;:141,&amp;quot;end&amp;quot;:290},&amp;quot;list&amp;quot;,{&amp;quot;spread&amp;quot;:false,&amp;quot;start&amp;quot;:157,&amp;quot;end&amp;quot;:290},&amp;quot;regular_list_item&amp;quot;,{&amp;quot;start&amp;quot;:157,&amp;quot;end&amp;quot;:208}]&quot;&gt;Manages inventory&lt;/p&gt;" style="ellipse;whiteSpace=wrap;html=1;" vertex="1" parent="1">
          <mxGeometry x="400" y="266" width="220" height="40" as="geometry" />
        </mxCell>
        <mxCell id="Omxx1tZ4pmGZDZzG7PeM-12" value="&lt;p data-pm-slice=&quot;1 1 [&amp;quot;ordered_list&amp;quot;,{&amp;quot;spread&amp;quot;:true,&amp;quot;startingNumber&amp;quot;:1,&amp;quot;start&amp;quot;:58,&amp;quot;end&amp;quot;:427},&amp;quot;regular_list_item&amp;quot;,{&amp;quot;start&amp;quot;:141,&amp;quot;end&amp;quot;:290},&amp;quot;list&amp;quot;,{&amp;quot;spread&amp;quot;:false,&amp;quot;start&amp;quot;:157,&amp;quot;end&amp;quot;:290},&amp;quot;regular_list_item&amp;quot;,{&amp;quot;start&amp;quot;:212,&amp;quot;end&amp;quot;:255}]&quot;&gt;Generates reports&lt;/p&gt;" style="ellipse;whiteSpace=wrap;html=1;" vertex="1" parent="1">
          <mxGeometry x="400" y="319" width="220" height="40" as="geometry" />
        </mxCell>
        <mxCell id="Omxx1tZ4pmGZDZzG7PeM-13" value="&lt;p data-pm-slice=&quot;1 1 [&amp;quot;ordered_list&amp;quot;,{&amp;quot;spread&amp;quot;:true,&amp;quot;startingNumber&amp;quot;:1,&amp;quot;start&amp;quot;:58,&amp;quot;end&amp;quot;:427},&amp;quot;regular_list_item&amp;quot;,{&amp;quot;start&amp;quot;:141,&amp;quot;end&amp;quot;:290},&amp;quot;list&amp;quot;,{&amp;quot;spread&amp;quot;:false,&amp;quot;start&amp;quot;:157,&amp;quot;end&amp;quot;:290},&amp;quot;regular_list_item&amp;quot;,{&amp;quot;start&amp;quot;:259,&amp;quot;end&amp;quot;:290}]&quot;&gt;Tracks customer interactions.&lt;/p&gt;" style="ellipse;whiteSpace=wrap;html=1;" vertex="1" parent="1">
          <mxGeometry x="400" y="377" width="220" height="40" as="geometry" />
        </mxCell>
        <mxCell id="Omxx1tZ4pmGZDZzG7PeM-14" value="&lt;p data-pm-slice=&quot;1 1 [&amp;quot;ordered_list&amp;quot;,{&amp;quot;spread&amp;quot;:true,&amp;quot;startingNumber&amp;quot;:1,&amp;quot;start&amp;quot;:58,&amp;quot;end&amp;quot;:427},&amp;quot;regular_list_item&amp;quot;,{&amp;quot;start&amp;quot;:292,&amp;quot;end&amp;quot;:427},&amp;quot;list&amp;quot;,{&amp;quot;spread&amp;quot;:false,&amp;quot;start&amp;quot;:309,&amp;quot;end&amp;quot;:427},&amp;quot;regular_list_item&amp;quot;,{&amp;quot;start&amp;quot;:309,&amp;quot;end&amp;quot;:328}]&quot;&gt;Processes orders.&lt;/p&gt;" style="ellipse;whiteSpace=wrap;html=1;" vertex="1" parent="1">
          <mxGeometry x="400" y="446" width="220" height="40" as="geometry" />
        </mxCell>
        <mxCell id="Omxx1tZ4pmGZDZzG7PeM-15" value="&lt;p data-pm-slice=&quot;1 1 [&amp;quot;ordered_list&amp;quot;,{&amp;quot;spread&amp;quot;:true,&amp;quot;startingNumber&amp;quot;:1,&amp;quot;start&amp;quot;:58,&amp;quot;end&amp;quot;:427},&amp;quot;regular_list_item&amp;quot;,{&amp;quot;start&amp;quot;:292,&amp;quot;end&amp;quot;:427},&amp;quot;list&amp;quot;,{&amp;quot;spread&amp;quot;:false,&amp;quot;start&amp;quot;:309,&amp;quot;end&amp;quot;:427},&amp;quot;regular_list_item&amp;quot;,{&amp;quot;start&amp;quot;:332,&amp;quot;end&amp;quot;:357}]&quot;&gt;Tracks food expiration.&lt;/p&gt;" style="ellipse;whiteSpace=wrap;html=1;" vertex="1" parent="1">
          <mxGeometry x="401" y="508" width="220" height="40" as="geometry" />
        </mxCell>
        <mxCell id="Omxx1tZ4pmGZDZzG7PeM-16" value="&lt;p data-pm-slice=&quot;1 1 [&amp;quot;ordered_list&amp;quot;,{&amp;quot;spread&amp;quot;:true,&amp;quot;startingNumber&amp;quot;:1,&amp;quot;start&amp;quot;:58,&amp;quot;end&amp;quot;:427},&amp;quot;regular_list_item&amp;quot;,{&amp;quot;start&amp;quot;:292,&amp;quot;end&amp;quot;:427},&amp;quot;list&amp;quot;,{&amp;quot;spread&amp;quot;:false,&amp;quot;start&amp;quot;:309,&amp;quot;end&amp;quot;:427},&amp;quot;regular_list_item&amp;quot;,{&amp;quot;start&amp;quot;:361,&amp;quot;end&amp;quot;:402}]&quot;&gt;Issues notifications for expired items.&lt;/p&gt;" style="ellipse;whiteSpace=wrap;html=1;" vertex="1" parent="1">
          <mxGeometry x="402" y="565" width="220" height="40" as="geometry" />
        </mxCell>
        <mxCell id="Omxx1tZ4pmGZDZzG7PeM-17" value="&lt;p data-pm-slice=&quot;1 1 [&amp;quot;ordered_list&amp;quot;,{&amp;quot;spread&amp;quot;:true,&amp;quot;startingNumber&amp;quot;:1,&amp;quot;start&amp;quot;:58,&amp;quot;end&amp;quot;:427},&amp;quot;regular_list_item&amp;quot;,{&amp;quot;start&amp;quot;:292,&amp;quot;end&amp;quot;:427},&amp;quot;list&amp;quot;,{&amp;quot;spread&amp;quot;:false,&amp;quot;start&amp;quot;:309,&amp;quot;end&amp;quot;:427},&amp;quot;regular_list_item&amp;quot;,{&amp;quot;start&amp;quot;:406,&amp;quot;end&amp;quot;:427}]&quot;&gt;Generates receipts.&lt;/p&gt;" style="ellipse;whiteSpace=wrap;html=1;" vertex="1" parent="1">
          <mxGeometry x="402" y="620" width="220" height="40" as="geometry" />
        </mxCell>
        <mxCell id="Omxx1tZ4pmGZDZzG7PeM-18" value="View Food Menu" style="ellipse;whiteSpace=wrap;html=1;" vertex="1" parent="1">
          <mxGeometry x="200" y="69" width="120" height="30" as="geometry" />
        </mxCell>
        <mxCell id="Omxx1tZ4pmGZDZzG7PeM-19" value="Generate Receipt" style="ellipse;whiteSpace=wrap;html=1;" vertex="1" parent="1">
          <mxGeometry x="200" y="113" width="120" height="30" as="geometry" />
        </mxCell>
        <mxCell id="Omxx1tZ4pmGZDZzG7PeM-20" value="&amp;lt;&amp;lt;Includes&amp;gt;&amp;gt;" style="endArrow=open;endSize=12;dashed=1;html=1;rounded=0;exitX=0;exitY=0.5;exitDx=0;exitDy=0;entryX=1;entryY=0.5;entryDx=0;entryDy=0;" edge="1" parent="1" source="Omxx1tZ4pmGZDZzG7PeM-8" target="Omxx1tZ4pmGZDZzG7PeM-18">
          <mxGeometry width="160" relative="1" as="geometry">
            <mxPoint x="610" y="89" as="sourcePoint" />
            <mxPoint x="770" y="89" as="targetPoint" />
          </mxGeometry>
        </mxCell>
        <mxCell id="Omxx1tZ4pmGZDZzG7PeM-21" value="&amp;lt;&amp;lt;Includes&amp;gt;&amp;gt;" style="endArrow=open;endSize=12;dashed=1;html=1;rounded=0;exitX=0.072;exitY=0.85;exitDx=0;exitDy=0;entryX=1;entryY=0.5;entryDx=0;entryDy=0;exitPerimeter=0;" edge="1" parent="1" source="Omxx1tZ4pmGZDZzG7PeM-8" target="Omxx1tZ4pmGZDZzG7PeM-19">
          <mxGeometry width="160" relative="1" as="geometry">
            <mxPoint x="598" y="133" as="sourcePoint" />
            <mxPoint x="714" y="96" as="targetPoint" />
          </mxGeometry>
        </mxCell>
        <mxCell id="Omxx1tZ4pmGZDZzG7PeM-22" value="Apply Discounts" style="ellipse;whiteSpace=wrap;html=1;" vertex="1" parent="1">
          <mxGeometry x="216" y="29" width="120" height="30" as="geometry" />
        </mxCell>
        <mxCell id="Omxx1tZ4pmGZDZzG7PeM-23" value="&amp;lt;&amp;lt;extends&amp;gt;&amp;gt;" style="endArrow=open;endSize=12;dashed=1;html=1;rounded=0;exitX=0;exitY=0;exitDx=0;exitDy=0;entryX=1;entryY=0.5;entryDx=0;entryDy=0;" edge="1" parent="1" source="Omxx1tZ4pmGZDZzG7PeM-8" target="Omxx1tZ4pmGZDZzG7PeM-22">
          <mxGeometry width="160" relative="1" as="geometry">
            <mxPoint x="317" y="118" as="sourcePoint" />
            <mxPoint x="433" y="81" as="targetPoint" />
          </mxGeometry>
        </mxCell>
        <mxCell id="Omxx1tZ4pmGZDZzG7PeM-24" value="Place Order" style="ellipse;whiteSpace=wrap;html=1;" vertex="1" parent="1">
          <mxGeometry x="200" y="164" width="120" height="30" as="geometry" />
        </mxCell>
        <mxCell id="Omxx1tZ4pmGZDZzG7PeM-25" value="&amp;lt;&amp;lt;Includes&amp;gt;&amp;gt;" style="endArrow=open;endSize=12;dashed=1;html=1;rounded=0;exitX=0;exitY=0;exitDx=0;exitDy=0;entryX=1;entryY=0.5;entryDx=0;entryDy=0;" edge="1" parent="1" target="Omxx1tZ4pmGZDZzG7PeM-24" source="Omxx1tZ4pmGZDZzG7PeM-10">
          <mxGeometry x="0.0013" width="160" relative="1" as="geometry">
            <mxPoint x="432.42706299954693" y="199.82000076335805" as="sourcePoint" />
            <mxPoint x="724" y="157" as="targetPoint" />
            <mxPoint as="offset" />
          </mxGeometry>
        </mxCell>
        <mxCell id="Omxx1tZ4pmGZDZzG7PeM-26" value="Track Food Expiration" style="ellipse;whiteSpace=wrap;html=1;" vertex="1" parent="1">
          <mxGeometry x="702" y="276" width="144" height="30" as="geometry" />
        </mxCell>
        <mxCell id="Omxx1tZ4pmGZDZzG7PeM-27" value="&amp;lt;&amp;lt;Includes&amp;gt;&amp;gt;" style="endArrow=open;endSize=12;dashed=1;html=1;rounded=0;exitX=1;exitY=0;exitDx=0;exitDy=0;entryX=0;entryY=0.5;entryDx=0;entryDy=0;" edge="1" parent="1" target="Omxx1tZ4pmGZDZzG7PeM-26" source="Omxx1tZ4pmGZDZzG7PeM-11">
          <mxGeometry width="160" relative="1" as="geometry">
            <mxPoint x="598" y="272" as="sourcePoint" />
            <mxPoint x="734" y="229" as="targetPoint" />
          </mxGeometry>
        </mxCell>
        <mxCell id="Omxx1tZ4pmGZDZzG7PeM-28" value="Notify Expired Items" style="ellipse;whiteSpace=wrap;html=1;" vertex="1" parent="1">
          <mxGeometry x="202" y="236" width="134" height="30" as="geometry" />
        </mxCell>
        <mxCell id="Omxx1tZ4pmGZDZzG7PeM-29" value="&amp;lt;&amp;lt;extends&amp;gt;&amp;gt;" style="endArrow=open;endSize=12;dashed=1;html=1;rounded=0;exitX=0;exitY=0;exitDx=0;exitDy=0;entryX=1;entryY=0.5;entryDx=0;entryDy=0;" edge="1" parent="1" target="Omxx1tZ4pmGZDZzG7PeM-28" source="Omxx1tZ4pmGZDZzG7PeM-11">
          <mxGeometry width="160" relative="1" as="geometry">
            <mxPoint x="429" y="269" as="sourcePoint" />
            <mxPoint x="430" y="255" as="targetPoint" />
          </mxGeometry>
        </mxCell>
        <mxCell id="Omxx1tZ4pmGZDZzG7PeM-30" value="Track Customer Interactions" style="ellipse;whiteSpace=wrap;html=1;" vertex="1" parent="1">
          <mxGeometry x="676" y="322.5" width="170" height="33" as="geometry" />
        </mxCell>
        <mxCell id="Omxx1tZ4pmGZDZzG7PeM-31" value="&amp;lt;&amp;lt;Includes&amp;gt;&amp;gt;" style="endArrow=open;endSize=12;dashed=1;html=1;rounded=0;exitX=1;exitY=0;exitDx=0;exitDy=0;entryX=0;entryY=0.5;entryDx=0;entryDy=0;" edge="1" parent="1" target="Omxx1tZ4pmGZDZzG7PeM-30" source="Omxx1tZ4pmGZDZzG7PeM-12">
          <mxGeometry width="160" relative="1" as="geometry">
            <mxPoint x="589" y="323" as="sourcePoint" />
            <mxPoint x="735" y="280" as="targetPoint" />
          </mxGeometry>
        </mxCell>
        <mxCell id="Omxx1tZ4pmGZDZzG7PeM-36" value="Track Customer Interactions" style="ellipse;whiteSpace=wrap;html=1;" vertex="1" parent="1">
          <mxGeometry x="671" y="417" width="186" height="30" as="geometry" />
        </mxCell>
        <mxCell id="Omxx1tZ4pmGZDZzG7PeM-37" value="&amp;lt;&amp;lt;Includes&amp;gt;&amp;gt;" style="endArrow=open;endSize=12;dashed=1;html=1;rounded=0;exitX=1;exitY=0;exitDx=0;exitDy=0;entryX=0;entryY=0.5;entryDx=0;entryDy=0;" edge="1" parent="1" target="Omxx1tZ4pmGZDZzG7PeM-36" source="Omxx1tZ4pmGZDZzG7PeM-14">
          <mxGeometry x="-0.0081" width="160" relative="1" as="geometry">
            <mxPoint x="589" y="428" as="sourcePoint" />
            <mxPoint x="736" y="383" as="targetPoint" />
            <mxPoint as="offset" />
          </mxGeometry>
        </mxCell>
        <mxCell id="Omxx1tZ4pmGZDZzG7PeM-38" value="Apply Discounts" style="ellipse;whiteSpace=wrap;html=1;" vertex="1" parent="1">
          <mxGeometry x="202" y="419" width="134" height="30" as="geometry" />
        </mxCell>
        <mxCell id="Omxx1tZ4pmGZDZzG7PeM-39" value="&amp;lt;&amp;lt;extends&amp;gt;&amp;gt;" style="endArrow=open;endSize=12;dashed=1;html=1;rounded=0;exitX=0;exitY=0;exitDx=0;exitDy=0;entryX=1;entryY=0.5;entryDx=0;entryDy=0;" edge="1" parent="1" target="Omxx1tZ4pmGZDZzG7PeM-38" source="Omxx1tZ4pmGZDZzG7PeM-14">
          <mxGeometry x="-0.0028" width="160" relative="1" as="geometry">
            <mxPoint x="433" y="428" as="sourcePoint" />
            <mxPoint x="432" y="409" as="targetPoint" />
            <mxPoint as="offset" />
          </mxGeometry>
        </mxCell>
        <mxCell id="Omxx1tZ4pmGZDZzG7PeM-42" value="Notify Expired Items" style="ellipse;whiteSpace=wrap;html=1;" vertex="1" parent="1">
          <mxGeometry x="707" y="516" width="134" height="30" as="geometry" />
        </mxCell>
        <mxCell id="Omxx1tZ4pmGZDZzG7PeM-43" value="&amp;lt;&amp;lt;extends&amp;gt;&amp;gt;" style="endArrow=open;endSize=12;dashed=1;html=1;rounded=0;exitX=1;exitY=0.5;exitDx=0;exitDy=0;entryX=0;entryY=0.5;entryDx=0;entryDy=0;" edge="1" parent="1" target="Omxx1tZ4pmGZDZzG7PeM-42" source="Omxx1tZ4pmGZDZzG7PeM-15">
          <mxGeometry x="-0.0043" width="160" relative="1" as="geometry">
            <mxPoint x="433" y="520" as="sourcePoint" />
            <mxPoint x="432" y="501" as="targetPoint" />
            <mxPoint as="offset" />
          </mxGeometry>
        </mxCell>
        <mxCell id="Omxx1tZ4pmGZDZzG7PeM-48" value="Place Order" style="ellipse;whiteSpace=wrap;html=1;" vertex="1" parent="1">
          <mxGeometry x="702" y="599" width="144" height="30" as="geometry" />
        </mxCell>
        <mxCell id="Omxx1tZ4pmGZDZzG7PeM-49" value="&amp;lt;&amp;lt;Includes&amp;gt;&amp;gt;" style="endArrow=open;endSize=12;dashed=1;html=1;rounded=0;exitX=1;exitY=0;exitDx=0;exitDy=0;entryX=0;entryY=0.5;entryDx=0;entryDy=0;" edge="1" parent="1" target="Omxx1tZ4pmGZDZzG7PeM-48">
          <mxGeometry width="160" relative="1" as="geometry">
            <mxPoint x="589" y="627" as="sourcePoint" />
            <mxPoint x="736" y="582" as="targetPoint" />
          </mxGeometry>
        </mxCell>
        <mxCell id="Omxx1tZ4pmGZDZzG7PeM-53" value="" style="endArrow=none;endFill=0;html=1;rounded=0;entryX=1;entryY=0.5;entryDx=0;entryDy=0;exitX=0;exitY=0.3333333333333333;exitDx=0;exitDy=0;exitPerimeter=0;" edge="1" parent="1" source="Omxx1tZ4pmGZDZzG7PeM-2" target="Omxx1tZ4pmGZDZzG7PeM-8">
          <mxGeometry width="160" relative="1" as="geometry">
            <mxPoint x="670" y="140" as="sourcePoint" />
            <mxPoint x="830" y="140" as="targetPoint" />
          </mxGeometry>
        </mxCell>
        <mxCell id="Omxx1tZ4pmGZDZzG7PeM-54" value="" style="endArrow=none;endFill=0;html=1;rounded=0;entryX=1;entryY=0.5;entryDx=0;entryDy=0;" edge="1" parent="1" target="Omxx1tZ4pmGZDZzG7PeM-9">
          <mxGeometry width="160" relative="1" as="geometry">
            <mxPoint x="1000" y="190" as="sourcePoint" />
            <mxPoint x="630" y="140" as="targetPoint" />
          </mxGeometry>
        </mxCell>
        <mxCell id="Omxx1tZ4pmGZDZzG7PeM-55" value="" style="endArrow=none;endFill=0;html=1;rounded=0;entryX=1;entryY=0.5;entryDx=0;entryDy=0;" edge="1" parent="1" target="Omxx1tZ4pmGZDZzG7PeM-10">
          <mxGeometry width="160" relative="1" as="geometry">
            <mxPoint x="993" y="190" as="sourcePoint" />
            <mxPoint x="613" y="209" as="targetPoint" />
          </mxGeometry>
        </mxCell>
        <mxCell id="Omxx1tZ4pmGZDZzG7PeM-57" value="" style="endArrow=none;endFill=0;html=1;rounded=0;entryX=0;entryY=0.5;entryDx=0;entryDy=0;exitX=1;exitY=0.3333333333333333;exitDx=0;exitDy=0;exitPerimeter=0;" edge="1" parent="1" source="Omxx1tZ4pmGZDZzG7PeM-3" target="Omxx1tZ4pmGZDZzG7PeM-11">
          <mxGeometry width="160" relative="1" as="geometry">
            <mxPoint x="1003" y="204" as="sourcePoint" />
            <mxPoint x="630" y="238" as="targetPoint" />
          </mxGeometry>
        </mxCell>
        <mxCell id="Omxx1tZ4pmGZDZzG7PeM-58" value="" style="endArrow=none;endFill=0;html=1;rounded=0;entryX=0;entryY=0.5;entryDx=0;entryDy=0;exitX=1;exitY=0.3333333333333333;exitDx=0;exitDy=0;exitPerimeter=0;" edge="1" parent="1" source="Omxx1tZ4pmGZDZzG7PeM-3" target="Omxx1tZ4pmGZDZzG7PeM-12">
          <mxGeometry width="160" relative="1" as="geometry">
            <mxPoint x="130" y="321" as="sourcePoint" />
            <mxPoint x="410" y="296" as="targetPoint" />
          </mxGeometry>
        </mxCell>
        <mxCell id="Omxx1tZ4pmGZDZzG7PeM-59" value="" style="endArrow=none;endFill=0;html=1;rounded=0;entryX=0;entryY=0.5;entryDx=0;entryDy=0;" edge="1" parent="1" target="Omxx1tZ4pmGZDZzG7PeM-13">
          <mxGeometry width="160" relative="1" as="geometry">
            <mxPoint x="120" y="310" as="sourcePoint" />
            <mxPoint x="410" y="349" as="targetPoint" />
          </mxGeometry>
        </mxCell>
        <mxCell id="Omxx1tZ4pmGZDZzG7PeM-60" value="" style="endArrow=none;endFill=0;html=1;rounded=0;entryX=0;entryY=0.5;entryDx=0;entryDy=0;exitX=1;exitY=0.3333333333333333;exitDx=0;exitDy=0;exitPerimeter=0;" edge="1" parent="1" source="Omxx1tZ4pmGZDZzG7PeM-4" target="Omxx1tZ4pmGZDZzG7PeM-14">
          <mxGeometry width="160" relative="1" as="geometry">
            <mxPoint x="130" y="328" as="sourcePoint" />
            <mxPoint x="410" y="410" as="targetPoint" />
          </mxGeometry>
        </mxCell>
        <mxCell id="Omxx1tZ4pmGZDZzG7PeM-61" value="" style="endArrow=none;endFill=0;html=1;rounded=0;entryX=0;entryY=0.5;entryDx=0;entryDy=0;exitX=1;exitY=0.3333333333333333;exitDx=0;exitDy=0;exitPerimeter=0;" edge="1" parent="1" source="Omxx1tZ4pmGZDZzG7PeM-4" target="Omxx1tZ4pmGZDZzG7PeM-15">
          <mxGeometry width="160" relative="1" as="geometry">
            <mxPoint x="125" y="537" as="sourcePoint" />
            <mxPoint x="405" y="499" as="targetPoint" />
          </mxGeometry>
        </mxCell>
        <mxCell id="Omxx1tZ4pmGZDZzG7PeM-62" value="" style="endArrow=none;endFill=0;html=1;rounded=0;entryX=0;entryY=0.5;entryDx=0;entryDy=0;exitX=1;exitY=0.3333333333333333;exitDx=0;exitDy=0;exitPerimeter=0;" edge="1" parent="1" source="Omxx1tZ4pmGZDZzG7PeM-4" target="Omxx1tZ4pmGZDZzG7PeM-16">
          <mxGeometry width="160" relative="1" as="geometry">
            <mxPoint x="120" y="520" as="sourcePoint" />
            <mxPoint x="411" y="551" as="targetPoint" />
          </mxGeometry>
        </mxCell>
        <mxCell id="Omxx1tZ4pmGZDZzG7PeM-63" value="" style="endArrow=none;endFill=0;html=1;rounded=0;entryX=0;entryY=0.5;entryDx=0;entryDy=0;exitX=1;exitY=0.3333333333333333;exitDx=0;exitDy=0;exitPerimeter=0;" edge="1" parent="1" source="Omxx1tZ4pmGZDZzG7PeM-4" target="Omxx1tZ4pmGZDZzG7PeM-17">
          <mxGeometry width="160" relative="1" as="geometry">
            <mxPoint x="130" y="543" as="sourcePoint" />
            <mxPoint x="412" y="607" as="targetPoint" />
          </mxGeometry>
        </mxCell>
      </root>
    </mxGraphModel>
  </diagram>
</mxfile>
